<?xml version="1.0" encoding="utf-8"?>
<!-- Generator: Adobe Illustrator 21.1.0, SVG Export Plug-In . SVG Version: 6.00 Build 0)  -->
<svg version="1.1" id="Calque_1" xmlns="http://www.w3.org/2000/svg" xmlns:xlink="http://www.w3.org/1999/xlink" x="0px" y="0px"
	 viewBox="0 0 1024 1024" style="enable-background:new 0 0 1024 1024;" xml:space="preserve">
<style type="text/css">
	.st0{fill:#CCCCCC;}
</style>
<g>
	<path class="st0" d="M517.4,326.4c55.3,47.9,110.2,95.4,165.1,143c57.4,49.7,114.7,99.6,172.3,149c6.7,5.8,9.1,11.5,9.1,20.2
		c-0.3,116.9-0.2,233.7-0.2,350.6c0,26.5-7.7,34.1-34.3,34.1c-74.9,0-149.8,0-224.7,0c-3.9,0-7.9,0-13.5,0c0-4.9,0-9.1,0-13.3
		c0-60.8,0-121.6,0-182.3c0-25.6-11.3-37-37.1-37c-32.9-0.1-65.8,0-98.8,0c-23.9,0-33.4,9.4-33.4,33.6c-0.1,61.9,0,123.7,0,185.6
		c0,4.3,0,8.5,0,14.2c-5,0-8.9,0-12.7,0c-77.8,0-155.6,0-233.3,0c-20.4,0-26.4-6-26.4-26.5c0-120.5,0-240.9-0.1-361.4
		c0-6.6,1.5-11.2,6.9-15.7c117.8-95.9,235.4-192,353.1-288C512,330.3,514.6,328.5,517.4,326.4z"/>
	<path class="st0" d="M14.4,598.3C183,453.5,351.3,309,520.2,164c163.4,144.3,326.2,288,488.9,431.5c-8.5,19.2-32.1,29.6-56.2,24.9
		c-21.4-4.1-40.3-13.8-56.7-28c-122.6-106.9-245.1-214-367.6-320.9c-2.7-2.3-5.5-4.5-8.7-7.2c-27.1,22.4-53.9,44.4-80.6,66.4
		C331.1,420,223.1,509.4,114.4,598.2c-12.3,10-27.2,18-42.2,23.2C49.4,629.3,28.8,620.1,14.4,598.3z"/>
	<path class="st0" d="M891.6,459.4c-29.5-24.4-57.3-48-85.8-70.6c-8.9-7-12.1-14.2-11.8-25.4c0.7-29.2,0-58.5-0.1-87.8
		c0-3.9,0-7.8,0-12.3c33,0,65,0,97.7,0C891.6,328.2,891.6,392.6,891.6,459.4z"/>
</g>
</svg>
